{"title":"Next Gen 2018 NF 720p WEB-DL x264 ESub [MW]","magnet":"magnet:?xt=urn:btih:d6e1227a6e8d16247ad9930cc3cb1587eed052ac&dn=Next+Gen+2018+NF+720p+WEB-DL+x264+ESub+%5BMW%5D&tr=udp%3A%2F%2Ftracker.leechers-paradise.org%3A6969&tr=udp%3A%2F%2Fzer0day.ch%3A1337&tr=udp%3A%2F%2Fopen.demonii.com%3A1337&tr=udp%3A%2F%2Ftracker.coppersurfer.tk%3A6969&tr=udp%3A%2F%2Fexodus.desync.com%3A6969","uploader":"MFreaky","categoryP":"video","categoryS":"hd___movies","size":"1010661373","seeders":"19","leechers":"21","description":" <a href=\"https://pichub.site/image/DgeBs\" rel=\"nofollow\" target=\"_NEW\">https://pichub.site/image/DgeBs</a> <a href=\"\nhttps://pichub.site/image/Dm4JY\" rel=\"nofollow\" target=\"_NEW\">\nhttps://pichub.site/image/Dm4JY</a> <a href=\"\nhttps://pichub.site/image/Dmfh6\" rel=\"nofollow\" target=\"_NEW\">\nhttps://pichub.site/image/Dmfh6</a> <a href=\"\nhttps://pichub.site/image/DmMb4\" rel=\"nofollow\" target=\"_NEW\">\nhttps://pichub.site/image/DmMb4</a> <a href=\"\nhttps://pichub.site/image/DmJot\" rel=\"nofollow\" target=\"_NEW\">\nhttps://pichub.site/image/DmJot</a>\r\n\r\nIMDB <a href=\"\nhttps://www.imdb.com/title/tt7133686/\" rel=\"nofollow\" target=\"_NEW\">\nhttps://www.imdb.com/title/tt7133686/</a>\r\n\r\nVideo\r\nID : 1\r\nFormat : AVC\r\nFormat/Info : Advanced Video Codec\r\nFormat profile : High@L4.1\r\nFormat settings : CABAC / 4 Ref Frames\r\nFormat settings, CABAC : Yes\r\nFormat settings, RefFrames : 4 frames\r\nCodec ID : V_MPEG4/ISO/AVC\r\nDuration : 1 h 45 min\r\nBit rate : 1 200 kb/s\r\nWidth : 1 280 pixels\r\nHeight : 536 pixels\r\nDisplay aspect ratio : 2.40:1\r\nFrame rate mode : Constant\r\nFrame rate : 24.000 FPS\r\nColor space : YUV\r\nChroma subsampling : 4:2:0\r\nBit depth : 8 bits\r\nScan type : Progressive\r\nBits/(Pixel*Frame) : 0.073\r\nStream size : 866 MiB (90%)\r\nWriting library : x264 core 155 r2901 7d0ff22\r\nDefault : Yes\r\nForced : No\r\n\r\nAudio\r\nID : 2\r\nFormat : AAC\r\nFormat/Info : Advanced Audio Codec\r\nFormat profile : HE-AAC / LC\r\nFormat settings : Explicit\r\nCodec ID : A_AAC-2\r\nDuration : 1 h 45 min\r\nBit rate : 127 kb/s\r\nChannel(s) : 2 channels\r\nChannel positions : Front: L R\r\nSampling rate : 48.0 kHz / 24.0 kHz\r\nFrame rate : 23.438 FPS (1024 SPF)\r\nCompression mode : Lossy\r\nStream size : 96.0 MiB (10%)\r\nLanguage : English\r\nDefault : Yes\r\nForced : No","last_updated":"2018-09-08T12:27:49.177Z","parsed":{"xt":"urn:btih:d6e1227a6e8d16247ad9930cc3cb1587eed052ac","dn":"Next Gen 2018 NF 720p WEB-DL x264 ESub [MW]","tr":["udp://exodus.desync.com:6969","udp://open.demonii.com:1337","udp://tracker.coppersurfer.tk:6969","udp://tracker.leechers-paradise.org:6969","udp://zer0day.ch:1337"],"infoHash":"d6e1227a6e8d16247ad9930cc3cb1587eed052ac","infoHashBuffer":{"type":"Buffer","data":[214,225,34,122,110,141,22,36,122,217,147,12,195,203,21,135,238,208,82,172]},"name":"Next Gen 2018 NF 720p WEB-DL x264 ESub [MW]","announce":["udp://exodus.desync.com:6969","udp://open.demonii.com:1337","udp://tracker.coppersurfer.tk:6969","udp://tracker.leechers-paradise.org:6969","udp://zer0day.ch:1337"],"urlList":[]}}